<svg xmlns="http://www.w3.org/2000/svg"  viewBox="0 0 48 48" width="48px" height="48px" fill-rule="evenodd" clip-rule="evenodd"><path fill="#e65100" fill-rule="evenodd" d="M33.011,18.14c-0.031-0.067-0.045-0.1-0.062-0.133 c-0.452-0.86-0.903-1.72-1.36-2.581c-0.046-0.086-0.04-0.137,0.023-0.212c0.72-0.84,1.43-1.686,2.15-2.522 c0.025-0.03,0.048-0.061,0.058-0.113c-0.209,0.055-0.418,0.108-0.629,0.164c-0.868,0.23-1.744,0.459-2.604,0.693 c-0.081,0.022-0.117-0.002-0.158-0.069c-0.493-0.824-0.989-1.651-1.488-2.464c-0.025-0.043-0.053-0.084-0.108-0.12 c-0.04,0.22-0.08,0.438-0.12,0.658c-0.138,0.775-0.277,1.546-0.414,2.325c-0.015,0.084-0.035,0.167-0.043,0.251 c-0.007,0.08-0.048,0.11-0.121,0.133c-1.024,0.322-2.046,0.646-3.069,0.971c-0.045,0.014-0.089,0.033-0.137,0.076 c0.837,0.332,1.674,0.665,2.522,1.003c-0.031,0.025-0.051,0.044-0.074,0.058c-0.523,0.338-1.047,0.677-1.569,1.016 c-0.063,0.041-0.112,0.047-0.183,0.015c-0.625-0.281-1.255-0.558-1.883-0.837c-0.281-0.126-0.534-0.292-0.73-0.534 c-0.445-0.544-0.357-1.162,0.236-1.546c0.194-0.124,0.415-0.216,0.635-0.288c1.003-0.327,2.011-0.642,3.011-0.958 c0.084-0.027,0.123-0.065,0.139-0.156c0.135-0.776,0.273-1.558,0.414-2.325c0.075-0.415,0.114-0.839,0.316-1.221 c0.077-0.146,0.17-0.289,0.281-0.411c0.4-0.444,0.957-0.46,1.383-0.038c0.143,0.143,0.265,0.31,0.371,0.484 c0.465,0.759,0.923,1.523,1.383,2.29c0.054,0.09,0.103,0.108,0.202,0.082c1.122-0.301,2.243-0.597,3.371-0.894 c0.232-0.061,0.466-0.083,0.704-0.039c0.517,0.097,0.744,0.491,0.568,0.992c-0.079,0.228-0.217,0.42-0.372,0.602 c-0.783,0.922-1.569,1.848-2.348,2.767c-0.064,0.075-0.065,0.129-0.021,0.214c0.47,0.885,0.935,1.767,1.407,2.662 c0.112,0.212,0.198,0.432,0.2,0.675c0.005,0.553-0.4,1.007-0.95,1.088c-0.308,0.045-0.594-0.021-0.883-0.11 c-0.703-0.217-1.407-0.431-2.116-0.644c-0.065-0.02-0.09-0.045-0.102-0.116c-0.081-0.496-0.17-0.992-0.256-1.488 c-0.002-0.014,0.002-0.028,0.004-0.059c0.803,0.222,1.604,0.441,2.429,0.67" clip-rule="evenodd" transform="matrix(1.33 0 0 1.33 0 0)"/><path fill="#424242" fill-rule="evenodd" d="M31.616,25.405c-0.635-0.001-1.267-0.004-1.906-0.001 c-0.084,0-0.131-0.024-0.178-0.095c-0.751-1.144-1.511-2.29-2.255-3.429c-0.024-0.036-0.05-0.071-0.092-0.133 c-0.162,1.232-0.321,2.441-0.48,3.65h-1.662c0.02-0.162,0.037-0.319,0.057-0.474c0.162-1.244,0.325-2.476,0.488-3.72 c0.156-1.186,0.31-2.371,0.468-3.557c0.005-0.035,0.028-0.08,0.057-0.099c0.572-0.373,1.146-0.743,1.72-1.112 c0.008-0.005,0.02-0.006,0.05-0.015c-0.173,1.325-0.345,2.639-0.518,3.952c0.007,0.005,0.014,0.01,0.02,0.014 c0.901-0.997,1.802-1.999,2.72-3.011c0.026,0.153,0.05,0.285,0.072,0.416c0.065,0.375,0.127,0.753,0.195,1.129 c0.014,0.076-0.006,0.122-0.057,0.176c-0.582,0.609-1.162,1.221-1.744,1.837c-0.025,0.027-0.05,0.055-0.079,0.086 c0.019,0.029,0.035,0.058,0.053,0.084c1.001,1.407,1.999,2.813,2.999,4.22c0.018,0.025,0.044,0.045,0.067,0.068v0.022" clip-rule="evenodd" transform="matrix(1.33 0 0 1.33 0 0)"/><path fill="#424242" fill-rule="evenodd" d="M11.971,21.686c-0.025-0.129-0.044-0.32-0.101-0.498 c-0.279-0.859-1.159-1.325-2.069-1.117c-1.001,0.232-1.72,1.019-1.813,2.046c-0.077,0.756,0.33,1.488,1.086,1.755 c0.609,0.22,1.197,0.128,1.744-0.199c0.722-0.432,1.112-1.075,1.162-1.988H11.971z M7.577,24.882 c-0.049,0.37-0.096,0.717-0.142,1.066c-0.061,0.463-0.122,0.926-0.18,1.395c-0.007,0.054-0.023,0.078-0.081,0.078 c-0.457-0.002-0.914-0.001-1.372-0.002c-0.01,0-0.021-0.005-0.045-0.013c0.028-0.219,0.055-0.438,0.083-0.657 c0.101-0.767,0.201-1.534,0.303-2.302c0.117-0.879,0.209-1.755,0.359-2.627c0.265-1.546,1.581-2.871,3.115-3.208 c0.892-0.193,1.744-0.104,2.522,0.399c0.776,0.5,1.221,1.232,1.325,2.139c0.144,1.29-0.331,2.36-1.244,3.255 c-0.602,0.582-1.325,0.952-2.15,1.078c-0.857,0.129-1.662-0.014-2.383-0.518c-0.026-0.019-0.055-0.035-0.1-0.063" clip-rule="evenodd" transform="matrix(1.33 0 0 1.33 0 0)"/><path fill="#424242" fill-rule="evenodd" d="M6.81,17.559c-0.511,0.381-1.005,0.749-1.5,1.117 c-0.08-0.126-0.151-0.251-0.235-0.368c-0.215-0.301-0.482-0.525-0.871-0.552c-0.323-0.023-0.6,0.083-0.82,0.322 c-0.196,0.213-0.222,0.516-0.039,0.757c0.202,0.265,0.423,0.516,0.65,0.761c0.375,0.407,0.767,0.797,1.139,1.209 c0.338,0.372,0.609,0.788,0.693,1.302c0.1,0.604-0.021,1.174-0.307,1.709c-0.529,0.982-1.36,1.558-2.464,1.732 c-0.486,0.078-0.969,0.063-1.441-0.076c-0.629-0.185-1.067-0.597-1.348-1.174c-0.099-0.206-0.176-0.423-0.265-0.644 c0.55-0.294,1.086-0.581,1.627-0.871c0.019,0.045,0.032,0.083,0.05,0.119c0.093,0.185,0.169,0.381,0.282,0.552 c0.341,0.506,0.889,0.659,1.441,0.409c0.143-0.065,0.281-0.155,0.399-0.259c0.358-0.319,0.425-0.763,0.16-1.162 c-0.152-0.23-0.343-0.437-0.529-0.643c-0.444-0.493-0.907-0.971-1.337-1.476c-0.299-0.346-0.502-0.749-0.567-1.209 c-0.07-0.507,0.031-0.983,0.294-1.407c0.654-1.059,1.604-1.604,2.86-1.569c0.717,0.026,1.29,0.362,1.732,0.919 c0.131,0.165,0.255,0.336,0.388,0.515" clip-rule="evenodd" transform="matrix(1.33 0 0 1.33 0 0)"/><path fill="#424242" fill-rule="evenodd" d="M18.945,23.197c-0.084,0.638-0.163,1.244-0.244,1.848 c-0.005,0.031-0.029,0.073-0.055,0.085c-1.244,0.574-2.871,0.494-3.882-0.661c-0.546-0.621-0.775-1.36-0.742-2.174 c0.079-1.895,1.651-3.557,3.534-3.79c1.098-0.135,2.057,0.162,2.801,1.016c0.507,0.581,0.742,1.279,0.707,2.046 c-0.023,0.507-0.102,1.01-0.165,1.511c-0.09,0.714-0.187,1.43-0.281,2.139c-0.004,0.025-0.009,0.05-0.015,0.083h-1.476 c0.02-0.164,0.038-0.324,0.059-0.485c0.107-0.824,0.226-1.651,0.32-2.476c0.059-0.514,0.022-1.024-0.214-1.5 c-0.25-0.506-0.668-0.774-1.221-0.832c-1.142-0.121-2.232,0.672-2.464,1.79c-0.16,0.742,0.093,1.453,0.684,1.848 c0.575,0.382,1.186,0.384,1.813,0.136c0.319-0.126,0.588-0.325,0.846-0.594" clip-rule="evenodd" transform="matrix(1.33 0 0 1.33 0 0)"/><path fill="#424242" fill-rule="evenodd" d="M25.223,18.698c-0.068,0.514-0.135,1.019-0.202,1.534 c-0.314,0-0.621-0.002-0.928,0c-0.249,0.002-0.475,0.163-0.551,0.395c-0.029,0.091-0.04,0.188-0.053,0.284 c-0.156,1.186-0.31,2.36-0.465,3.534c-0.039,0.298-0.077,0.595-0.116,0.897h-1.546c0.029-0.227,0.056-0.446,0.084-0.666 c0.1-0.765,0.201-1.534,0.302-2.29c0.088-0.661,0.166-1.325,0.27-1.988c0.138-0.883,1.017-1.674,1.906-1.709 c0.425-0.019,0.852-0.003,1.29-0.003" clip-rule="evenodd" transform="matrix(1.33 0 0 1.33 0 0)"/><path fill="#424242" d="M8.867,16.466H9.25l-0.09-0.579L8.867,16.466z M9.31,16.841H8.674l-0.202,0.396H8.021l0.994-1.86 H9.45l0.338,1.86H9.371L9.31,16.841" transform="matrix(1.33 0 0 1.33 0 0)"/><path fill="#424242" d="M11.587,15.757h-0.227l-0.076,0.429h0.227c0.137,0,0.245-0.09,0.245-0.259 C11.756,15.815,11.688,15.757,11.587,15.757L11.587,15.757z M11.039,15.383h0.595c0.312,0,0.529,0.186,0.529,0.504 c0,0.402-0.284,0.672-0.688,0.672h-0.257l-0.121,0.68h-0.388l0.328-1.86" transform="matrix(1.33 0 0 1.33 0 0)"/><path fill="#424242" d="M13.482,16.466h0.382l-0.09-0.579L13.482,16.466z M13.924,16.841h-0.636l-0.202,0.396h-0.451 l0.994-1.86h0.435l0.338,1.86h-0.417L13.924,16.841" transform="matrix(1.33 0 0 1.33 0 0)"/><path fill="#424242" d="M16.388,17.176c-0.131,0.06-0.275,0.096-0.421,0.096c-0.492,0-0.8-0.368-0.8-0.83 c0-0.591,0.496-1.087,1.087-1.087c0.148,0,0.281,0.035,0.391,0.095l-0.055,0.445c-0.082-0.09-0.214-0.153-0.377-0.153 c-0.338,0-0.639,0.306-0.639,0.66c0,0.27,0.17,0.481,0.437,0.481c0.164,0,0.322-0.063,0.429-0.15L16.388,17.176" transform="matrix(1.33 0 0 1.33 0 0)"/><path fill="#424242" d="M18.829,16.49h-0.808l-0.131,0.747h-0.387l0.328-1.86h0.388l-0.13,0.735h0.808l0.131-0.735h0.388 l-0.328,1.86H18.7l0.13-0.747" transform="matrix(1.33 0 0 1.33 0 0)"/><path fill="#424242" d="M20.224,17.234l0.328-1.86h1.03l-0.065,0.374h-0.642l-0.065,0.36h0.589l-0.065,0.374h-0.589 l-0.065,0.374h0.642l-0.065,0.374h-1.03" transform="matrix(1.33 0 0 1.33 0 0)"/></svg>